<?xml version="1.0" encoding="UTF-8"?>
<svg width="100px" height="100px" viewBox="0 0 100 100" version="1.1" xmlns="http://www.w3.org/2000/svg" xmlns:xlink="http://www.w3.org/1999/xlink">
    <title>圆通采购-供应商端</title>
    <defs>
        <path d="M50,0 C77.6142375,-5.07265313e-15 100,22.3857625 100,50 C100,77.6142375 77.6142375,100 50,100 C22.3857625,100 1.69088438e-15,77.6142375 0,50 C-3.38176876e-15,22.3857625 22.3857625,3.38176876e-15 50,0 Z" id="path-1"></path>
    </defs>
    <g id="圆通采购-供应商端" stroke="none" stroke-width="1" fill="none" fill-rule="evenodd">
        <g id="logo">
            <mask id="mask-2" fill="white">
                <use xlink:href="#path-1"></use>
            </mask>
            <use id="蒙版" fill="#4D148C" fill-rule="nonzero" xlink:href="#path-1"></use>
            <path d="M77.4173411,46.6493837 C84.3069535,44.3820581 89.3265659,37.9958566 89.5479612,30.4018643 L82.3572248,30.4018643 C82.0910233,35.7950814 77.7415271,40.1050426 72.3384264,40.3323682 C73.2516822,42.2050039 73.8414109,44.2634535 74.0397442,46.4358953 C74.0404031,46.4477558 74.0417209,46.4596163 74.0430388,46.4714767 C74.0700543,46.7778721 74.0898217,47.0869031 74.1016822,47.3972519 C74.103,47.3972519 74.1043178,47.3972519 74.1056357,47.3972519 C74.1135426,47.6179884 74.118155,47.8407016 74.118155,48.0640736 C74.118155,49.7087248 73.8888527,51.298686 73.4678062,52.8089186 C77.6275349,54.1972519 80.6282326,58.1204302 80.6282326,62.7460116 C80.6282326,62.835624 80.6269147,62.9252364 80.624938,63.0148488 L87.8104031,63.0148488 C87.8117209,62.9252364 87.8136977,62.835624 87.8136977,62.7460116 C87.8136977,55.5836085 83.5465659,49.4194612 77.4173411,46.6493837" id="Fill-149" fill="#FF00B9" mask="url(#mask-2)"></path>
            <path d="M74.3972054,24.7990465 C73.3482132,23.7493953 71.9526318,23.1715271 70.4680969,23.1715271 C68.983562,23.1715271 67.5879806,23.7493953 66.5389884,24.7990465 C65.4893372,25.8486977 64.911469,27.2436202 64.911469,28.728155 C64.9121279,30.2126899 65.4899961,31.6076124 66.5389884,32.6572636 C67.5886395,33.7062558 68.9842209,34.2847829 70.4680969,34.2847829 C71.9526318,34.2847829 73.3482132,33.7062558 74.3972054,32.6566047 C75.4468566,31.6076124 76.0247248,30.212031 76.0247248,28.728155 L76.0247248,28.7274961 C76.0247248,27.2436202 75.4468566,25.8480388 74.3972054,24.7990465" id="Fill-151" fill="#FF00B9" mask="url(#mask-2)"></path>
            <polygon id="Fill-153" fill="#FFFFFF" mask="url(#mask-2)" points="25.3570155 33.1689767 21.1689535 41.3863023 17.1344186 33.1946744 17.1212403 33.1689767 8.84263566 33.1689767 15.9938372 47.5432016 16.0300775 47.6163411 17.9929845 47.6163411 10.1453101 63.0145194 18.2413953 63.0145194 29.7789922 40.3445581 38.4681008 40.3445581 26.9173256 63.0145194 35.2084496 63.0145194 46.7598837 40.3445581 53.0795349 40.3445581 56.733876 33.1689767"></polygon>
            <path d="M56.7336124,33.1689767 C64.8323333,33.3172326 71.3542713,39.9294419 71.3542713,48.0637442 C71.3542713,56.2902946 64.6827597,62.9618062 56.4562093,62.9618062 C51.8062481,62.9618062 47.6537674,60.8302171 44.9212481,57.4914961 L44.929814,57.4875426 L50.0482636,52.369093 C51.4346202,54.4288605 53.7876047,55.7835891 56.4562093,55.7835891 C60.7187287,55.7835891 64.1760543,52.3262636 64.1760543,48.0637442 C64.1760543,43.8012248 60.7187287,40.3438992 56.4562093,40.3438992 L53.0792713,40.3438992 L56.7336124,33.1689767 Z" id="Fill-155" fill="#FF00B9" mask="url(#mask-2)"></path>
            <path d="M43.0662713,70.7956434 L47.2035969,70.7956434 C47.071814,69.5357984 46.4142171,68.6989767 45.1220853,68.6989767 C43.9123178,68.6989767 43.1993721,69.6636279 43.0662713,70.7956434 L43.0662713,70.7956434 Z M86.6870853,70.0214186 C86.5954961,69.5114186 86.403093,69.1542868 86.0571628,68.9407984 C85.7316589,68.7411473 85.3310388,68.6989767 84.9567752,68.6989767 C84.4467752,68.6989767 83.6587132,68.8445969 83.505845,69.4363023 C83.4327054,69.7202946 83.5335194,69.9759535 83.7588682,70.1564961 C84.0580155,70.3976589 84.5113488,70.5090155 84.8678217,70.6137829 C85.4819302,70.7943256 86.1151473,70.9247907 86.6996047,71.1896744 C87.1898372,71.4117287 87.6253798,71.7714961 87.7683643,72.3151008 C87.8784031,72.7321938 87.817124,73.2527364 87.647124,73.6329302 C87.3908062,74.2055271 86.8649922,74.5178527 86.2752636,74.6654496 C85.9675504,74.7425426 85.6137132,74.7847132 85.2150698,74.7906434 C84.8045659,74.7906434 84.3808837,74.7656047 83.9782868,74.6496357 C82.8647209,74.3274264 82.4047984,73.4642481 82.2908062,72.3651783 C82.6130155,72.3658372 82.9352248,72.3658372 83.2567752,72.3658372 C83.4175504,73.5466124 84.0053023,73.928124 85.1728992,73.9096744 C85.9504186,73.8951783 86.8149147,73.6856434 86.8149147,72.769093 C86.8149147,72.1747519 86.2396822,71.9513798 85.7408837,71.795876 C85.1274341,71.6041318 84.4955349,71.4763023 83.8906512,71.2562248 C83.3575891,71.061845 82.8093721,70.7765349 82.5853411,70.2210698 C82.4614651,69.9146744 82.4449922,69.5608372 82.524062,69.2425814 C82.7823566,68.194907 84.0257287,67.8166899 84.9692946,67.8166899 C85.7586744,67.8166899 86.3760775,67.9893256 86.820845,68.333938 C87.3512713,68.7451008 87.5832093,69.3730465 87.647124,70.0207597 C87.3268915,70.0240543 87.0066589,70.0214186 86.6870853,70.0214186 L86.6870853,70.0214186 Z M69.4755736,70.7956434 L73.6128992,70.7956434 C73.4804574,69.5357984 72.8228605,68.6989767 71.5307287,68.6989767 C70.3216202,68.6989767 69.6080155,69.6636279 69.4755736,70.7956434 L69.4755736,70.7956434 Z M74.6447597,71.6403721 L69.4584419,71.6403721 C69.5533256,72.8613411 70.2339845,73.9103333 71.5425891,73.9103333 L71.5794884,73.9103333 C72.6172791,73.897814 73.2452248,73.2784341 73.5437132,72.3282791 L74.5373566,72.3282791 C74.1716589,73.8470775 73.1674729,74.7919612 71.5425891,74.7919612 C69.8755349,74.7919612 68.7283643,73.5927364 68.4977442,72.0488992 C68.4621628,71.8116899 68.4443721,71.5613023 68.4443721,71.2983953 C68.445031,70.8147519 68.5128992,70.3699845 68.6492946,69.9647519 C69.0815426,68.6745969 70.152938,67.8166899 71.5182093,67.8166899 C73.8046434,67.8166899 74.588093,69.7143643 74.6447597,71.6403721 L74.6447597,71.6403721 Z M50.2985194,67.9899845 C50.8948372,68.7773876 51.4786357,69.5766512 52.0683643,70.3699845 C52.658093,69.5766512 53.2445271,68.7800233 53.8382093,67.9899845 L55.015031,67.9899845 L52.6376667,71.1251008 C53.5206124,72.290062 54.4035581,73.4556822 55.2871628,74.6193256 L54.0971628,74.6193256 C53.4224341,73.7060698 52.7444109,72.7941318 52.0683643,71.8815349 C51.3877054,72.7941318 50.7103411,73.7093643 50.0263876,74.6193256 L48.8357287,74.6193256 C49.7232868,73.4550233 50.610186,72.290062 51.4977442,71.1251008 C50.7011163,70.080062 49.9051473,69.0337054 49.1072016,67.9899845 L50.2985194,67.9899845 Z M57.2500698,70.7310698 C57.2026279,71.1132403 57.2013101,71.5645969 57.2520465,71.9467674 C57.4003023,73.0504496 58.1040233,73.9228527 59.2241783,73.9228527 C60.725845,73.9228527 61.305031,72.6518062 61.305031,71.3234341 C61.305031,70.0148295 60.7535194,68.6864574 59.2492171,68.6864574 C58.0644884,68.6864574 57.3825116,69.6675814 57.2500698,70.7310698 L57.2500698,70.7310698 Z M62.2650698,70.621031 C62.3263488,71.0763411 62.3276667,71.5533953 62.2663876,72.0087054 C62.0535581,73.5841705 61.0025891,74.7919612 59.3605736,74.7919612 C58.4631318,74.7919612 57.7225116,74.3860698 57.2421628,73.6316124 C57.2421628,74.7768062 57.2428217,75.922 57.2428217,77.0665349 L56.2616977,77.0665349 L56.2616977,67.9899845 L57.2052636,67.9899845 L57.2052636,68.9230078 C57.6981318,68.1902946 58.453907,67.8166899 59.3355349,67.8166899 C61.0032481,67.8166899 62.0608062,69.1081628 62.2650698,70.621031 L62.2650698,70.621031 Z M67.7241783,68.9862636 C66.6316977,68.6640543 65.6822016,68.7622326 65.1287132,69.8738217 C64.9356512,70.2619225 64.8559225,70.6961473 64.8559225,71.1270775 C64.8559225,72.2913798 64.8559225,73.4563411 64.8559225,74.6193256 L63.8754574,74.6193256 C63.8761163,72.4099845 63.8754574,70.1999845 63.8754574,67.9899845 L64.8559225,67.9899845 L64.8559225,68.851845 C65.4832093,67.8838992 66.6712326,67.568938 67.7241783,67.9919612 L67.7241783,68.9862636 Z M80.0992558,70.0214186 C80.0070078,69.5114186 79.8152636,69.1542868 79.4693333,68.9407984 C79.1438295,68.7411473 78.7432093,68.6989767 78.3689457,68.6989767 C77.8589457,68.6989767 77.0708837,68.8445969 76.9180155,69.4363023 C76.844876,69.7202946 76.9456899,69.9759535 77.1710388,70.1564961 C77.470186,70.3976589 77.9235194,70.5090155 78.2799922,70.6137829 C78.8941008,70.7943256 79.5266589,70.9247907 80.1117752,71.1896744 C80.6020078,71.4117287 81.0375504,71.7714961 81.1805349,72.3151008 C81.2905736,72.7321938 81.2292946,73.2527364 81.0592946,73.6329302 C80.8029767,74.2055271 80.2771628,74.5178527 79.6874341,74.6654496 C79.3797209,74.7425426 79.0265426,74.7847132 78.6272403,74.7906434 C78.2167364,74.7906434 77.7930543,74.7656047 77.3904574,74.6496357 C76.2768915,74.3274264 75.816969,73.4642481 75.7029767,72.3651783 C76.025186,72.3658372 76.3473953,72.3658372 76.6689457,72.3658372 C76.8297209,73.5466124 77.4174729,73.928124 78.5850698,73.9096744 C79.3625891,73.8951783 80.2264264,73.6856434 80.2264264,72.769093 C80.2264264,72.1747519 79.6518527,71.9513798 79.1530543,71.795876 C78.5396047,71.6041318 77.9070465,71.4763023 77.3028217,71.2562248 C76.7704186,71.061845 76.2215426,70.7765349 75.9975116,70.2210698 C75.8736357,69.9146744 75.8571628,69.5608372 75.9362326,69.2425814 C76.1945271,68.194907 77.4378992,67.8166899 78.3814651,67.8166899 C79.170845,67.8166899 79.7882481,67.9893256 80.2330155,68.333938 C80.7634419,68.7451008 80.9953798,69.3730465 81.0592946,70.0207597 C80.739062,70.0240543 80.4188295,70.0214186 80.0992558,70.0214186 L80.0992558,70.0214186 Z M48.2354574,71.6403721 L43.0491395,71.6403721 C43.1440233,72.8613411 43.8246822,73.9103333 45.1339457,73.9103333 L45.170845,73.9103333 C46.2086357,73.897814 46.8365814,73.2784341 47.1350698,72.3282791 L48.1280543,72.3282791 C47.7630155,73.8470775 46.7588295,74.7919612 45.1339457,74.7919612 C43.4662326,74.7919612 42.3197209,73.5927364 42.0891008,72.0488992 C42.0528605,71.8116899 42.0357287,71.5613023 42.0357287,71.2983953 L42.0357287,71.2983953 C42.0357287,70.8147519 42.1042558,70.3699845 42.2399922,69.9647519 C42.6728992,68.6745969 43.7442946,67.8166899 45.1095659,67.8166899 C47.396,67.8166899 48.1794496,69.7143643 48.2354574,71.6403721 L48.2354574,71.6403721 Z" id="Fill-157" fill="#FFFFFF" mask="url(#mask-2)"></path>
        </g>
    </g>
</svg>